<mxfile host="app.diagrams.net" agent="Mozilla/5.0 (Windows NT 10.0; Win64; x64) AppleWebKit/537.36 (KHTML, like Gecko) Chrome/131.0.0.0 Safari/537.36 Edg/131.0.0.0" version="25.0.3">
  <diagram name="第 1 页" id="R4TEpyVaWRHAfQZKu45M">
    <mxGraphModel dx="1026" dy="471" grid="1" gridSize="10" guides="1" tooltips="1" connect="1" arrows="1" fold="1" page="1" pageScale="1" pageWidth="827" pageHeight="1169" math="0" shadow="0">
      <root>
        <mxCell id="0" />
        <mxCell id="1" parent="0" />
        <mxCell id="A0skXZaS7BoS2G26XvCz-3" value="" style="endArrow=classic;html=1;rounded=0;exitX=1;exitY=0;exitDx=0;exitDy=0;entryX=0;entryY=1;entryDx=0;entryDy=0;" parent="1" source="A0skXZaS7BoS2G26XvCz-5" target="A0skXZaS7BoS2G26XvCz-4" edge="1">
          <mxGeometry width="50" height="50" relative="1" as="geometry">
            <mxPoint x="439.0787183433431" y="219.64759740322881" as="sourcePoint" />
            <mxPoint x="530" y="180" as="targetPoint" />
            <Array as="points" />
          </mxGeometry>
        </mxCell>
        <mxCell id="A0skXZaS7BoS2G26XvCz-4" value="账号管理子系统" style="ellipse;whiteSpace=wrap;html=1;labelBorderColor=default;fontSize=14;" parent="1" vertex="1">
          <mxGeometry x="480" y="180" width="110" height="70" as="geometry" />
        </mxCell>
        <mxCell id="A0skXZaS7BoS2G26XvCz-5" value="&lt;font style=&quot;font-size: 16px;&quot;&gt;书店管理系统&lt;/font&gt;" style="rounded=0;whiteSpace=wrap;html=1;fontColor=#030303;" parent="1" vertex="1">
          <mxGeometry x="330" y="320" width="120" height="60" as="geometry" />
        </mxCell>
        <mxCell id="A0skXZaS7BoS2G26XvCz-6" value="" style="endArrow=classic;html=1;rounded=0;entryX=0.5;entryY=1;entryDx=0;entryDy=0;exitX=0.232;exitY=0.086;exitDx=0;exitDy=0;exitPerimeter=0;" parent="1" source="A0skXZaS7BoS2G26XvCz-4" target="A0skXZaS7BoS2G26XvCz-7" edge="1">
          <mxGeometry width="50" height="50" relative="1" as="geometry">
            <mxPoint x="506" y="180" as="sourcePoint" />
            <mxPoint x="510" y="80" as="targetPoint" />
          </mxGeometry>
        </mxCell>
        <mxCell id="A0skXZaS7BoS2G26XvCz-7" value="注册" style="rounded=0;whiteSpace=wrap;html=1;" parent="1" vertex="1">
          <mxGeometry x="430" y="110" width="80" height="40" as="geometry" />
        </mxCell>
        <mxCell id="A0skXZaS7BoS2G26XvCz-8" value="" style="endArrow=classic;html=1;rounded=0;exitX=1;exitY=0.5;exitDx=0;exitDy=0;entryX=0;entryY=0.5;entryDx=0;entryDy=0;" parent="1" source="A0skXZaS7BoS2G26XvCz-4" target="A0skXZaS7BoS2G26XvCz-9" edge="1">
          <mxGeometry width="50" height="50" relative="1" as="geometry">
            <mxPoint x="430" y="70" as="sourcePoint" />
            <mxPoint x="700" y="170" as="targetPoint" />
          </mxGeometry>
        </mxCell>
        <mxCell id="A0skXZaS7BoS2G26XvCz-9" value="登录" style="rounded=0;whiteSpace=wrap;html=1;" parent="1" vertex="1">
          <mxGeometry x="635" y="195" width="80" height="40" as="geometry" />
        </mxCell>
        <mxCell id="A0skXZaS7BoS2G26XvCz-46" style="edgeStyle=orthogonalEdgeStyle;rounded=0;orthogonalLoop=1;jettySize=auto;html=1;exitX=0;exitY=0.5;exitDx=0;exitDy=0;entryX=1;entryY=0.5;entryDx=0;entryDy=0;" parent="1" source="A0skXZaS7BoS2G26XvCz-11" target="A0skXZaS7BoS2G26XvCz-43" edge="1">
          <mxGeometry relative="1" as="geometry" />
        </mxCell>
        <mxCell id="A0skXZaS7BoS2G26XvCz-11" value="图书管理子系统" style="ellipse;whiteSpace=wrap;html=1;labelBorderColor=default;fontSize=14;" parent="1" vertex="1">
          <mxGeometry x="170" y="190" width="110" height="70" as="geometry" />
        </mxCell>
        <mxCell id="A0skXZaS7BoS2G26XvCz-14" value="" style="endArrow=classic;html=1;rounded=0;exitX=1;exitY=1;exitDx=0;exitDy=0;entryX=0;entryY=0;entryDx=0;entryDy=0;" parent="1" source="A0skXZaS7BoS2G26XvCz-5" target="A0skXZaS7BoS2G26XvCz-26" edge="1">
          <mxGeometry width="50" height="50" relative="1" as="geometry">
            <mxPoint x="430" y="400" as="sourcePoint" />
            <mxPoint x="531.52" y="462.48" as="targetPoint" />
          </mxGeometry>
        </mxCell>
        <mxCell id="A0skXZaS7BoS2G26XvCz-15" value="" style="endArrow=classic;html=1;rounded=0;exitX=0;exitY=0;exitDx=0;exitDy=0;entryX=1;entryY=1;entryDx=0;entryDy=0;" parent="1" source="A0skXZaS7BoS2G26XvCz-5" target="A0skXZaS7BoS2G26XvCz-11" edge="1">
          <mxGeometry width="50" height="50" relative="1" as="geometry">
            <mxPoint x="430" y="100" as="sourcePoint" />
            <mxPoint x="480" y="50" as="targetPoint" />
          </mxGeometry>
        </mxCell>
        <mxCell id="A0skXZaS7BoS2G26XvCz-19" value="" style="endArrow=classic;html=1;rounded=0;exitX=0.5;exitY=0;exitDx=0;exitDy=0;entryX=0.5;entryY=1;entryDx=0;entryDy=0;" parent="1" source="A0skXZaS7BoS2G26XvCz-7" target="A0skXZaS7BoS2G26XvCz-20" edge="1">
          <mxGeometry width="50" height="50" relative="1" as="geometry">
            <mxPoint x="310" y="90" as="sourcePoint" />
            <mxPoint x="500" y="60" as="targetPoint" />
            <Array as="points" />
          </mxGeometry>
        </mxCell>
        <mxCell id="A0skXZaS7BoS2G26XvCz-20" value="输入用户名" style="ellipse;whiteSpace=wrap;html=1;" parent="1" vertex="1">
          <mxGeometry x="435" y="30" width="70" height="50" as="geometry" />
        </mxCell>
        <mxCell id="A0skXZaS7BoS2G26XvCz-21" value="输入用户类型" style="ellipse;whiteSpace=wrap;html=1;" parent="1" vertex="1">
          <mxGeometry x="570" y="30" width="70" height="50" as="geometry" />
        </mxCell>
        <mxCell id="A0skXZaS7BoS2G26XvCz-22" value="" style="endArrow=classic;html=1;rounded=0;exitX=1;exitY=0;exitDx=0;exitDy=0;entryX=0;entryY=1;entryDx=0;entryDy=0;" parent="1" source="A0skXZaS7BoS2G26XvCz-7" target="A0skXZaS7BoS2G26XvCz-21" edge="1">
          <mxGeometry width="50" height="50" relative="1" as="geometry">
            <mxPoint x="750" y="170" as="sourcePoint" />
            <mxPoint x="715" y="149" as="targetPoint" />
            <Array as="points" />
          </mxGeometry>
        </mxCell>
        <mxCell id="A0skXZaS7BoS2G26XvCz-23" value="" style="endArrow=classic;html=1;rounded=0;exitX=0.5;exitY=0;exitDx=0;exitDy=0;entryX=0.5;entryY=1;entryDx=0;entryDy=0;" parent="1" source="A0skXZaS7BoS2G26XvCz-11" target="A0skXZaS7BoS2G26XvCz-24" edge="1">
          <mxGeometry width="50" height="50" relative="1" as="geometry">
            <mxPoint x="430" y="300" as="sourcePoint" />
            <mxPoint x="225" y="140" as="targetPoint" />
          </mxGeometry>
        </mxCell>
        <mxCell id="A0skXZaS7BoS2G26XvCz-24" value="录入图书" style="rounded=0;whiteSpace=wrap;html=1;" parent="1" vertex="1">
          <mxGeometry x="185" y="100" width="80" height="40" as="geometry" />
        </mxCell>
        <mxCell id="A0skXZaS7BoS2G26XvCz-26" value="&lt;font style=&quot;font-size: 14px;&quot;&gt;图书销售子系统&lt;/font&gt;" style="ellipse;whiteSpace=wrap;html=1;" parent="1" vertex="1">
          <mxGeometry x="484" y="450" width="120" height="80" as="geometry" />
        </mxCell>
        <mxCell id="A0skXZaS7BoS2G26XvCz-33" style="edgeStyle=orthogonalEdgeStyle;rounded=0;orthogonalLoop=1;jettySize=auto;html=1;exitX=0.5;exitY=0;exitDx=0;exitDy=0;entryX=0.5;entryY=1;entryDx=0;entryDy=0;" parent="1" source="A0skXZaS7BoS2G26XvCz-27" target="A0skXZaS7BoS2G26XvCz-30" edge="1">
          <mxGeometry relative="1" as="geometry" />
        </mxCell>
        <mxCell id="A0skXZaS7BoS2G26XvCz-27" value="图书查询" style="rounded=0;whiteSpace=wrap;html=1;" parent="1" vertex="1">
          <mxGeometry x="640" y="470" width="80" height="40" as="geometry" />
        </mxCell>
        <mxCell id="A0skXZaS7BoS2G26XvCz-28" value="" style="endArrow=classic;html=1;rounded=0;exitX=1;exitY=0.5;exitDx=0;exitDy=0;entryX=0;entryY=0.5;entryDx=0;entryDy=0;" parent="1" source="A0skXZaS7BoS2G26XvCz-26" target="A0skXZaS7BoS2G26XvCz-27" edge="1">
          <mxGeometry width="50" height="50" relative="1" as="geometry">
            <mxPoint x="430" y="300" as="sourcePoint" />
            <mxPoint x="690" y="474" as="targetPoint" />
          </mxGeometry>
        </mxCell>
        <mxCell id="A0skXZaS7BoS2G26XvCz-34" style="edgeStyle=orthogonalEdgeStyle;rounded=0;orthogonalLoop=1;jettySize=auto;html=1;exitX=0.5;exitY=0;exitDx=0;exitDy=0;entryX=0.5;entryY=1;entryDx=0;entryDy=0;" parent="1" source="A0skXZaS7BoS2G26XvCz-30" target="A0skXZaS7BoS2G26XvCz-31" edge="1">
          <mxGeometry relative="1" as="geometry" />
        </mxCell>
        <mxCell id="A0skXZaS7BoS2G26XvCz-30" value="输入查询信息" style="ellipse;whiteSpace=wrap;html=1;" parent="1" vertex="1">
          <mxGeometry x="645" y="380" width="70" height="50" as="geometry" />
        </mxCell>
        <mxCell id="A0skXZaS7BoS2G26XvCz-31" value="输出图书信息" style="ellipse;whiteSpace=wrap;html=1;" parent="1" vertex="1">
          <mxGeometry x="645" y="290" width="70" height="50" as="geometry" />
        </mxCell>
        <mxCell id="A0skXZaS7BoS2G26XvCz-35" value="图书购买" style="rounded=0;whiteSpace=wrap;html=1;" parent="1" vertex="1">
          <mxGeometry x="570" y="585" width="90" height="50" as="geometry" />
        </mxCell>
        <mxCell id="A0skXZaS7BoS2G26XvCz-37" value="" style="endArrow=classic;html=1;rounded=0;exitX=1;exitY=1;exitDx=0;exitDy=0;entryX=0.5;entryY=0;entryDx=0;entryDy=0;" parent="1" source="A0skXZaS7BoS2G26XvCz-26" target="A0skXZaS7BoS2G26XvCz-35" edge="1">
          <mxGeometry width="50" height="50" relative="1" as="geometry">
            <mxPoint x="340" y="464.63" as="sourcePoint" />
            <mxPoint x="360.29857499854666" y="515.3764374963665" as="targetPoint" />
          </mxGeometry>
        </mxCell>
        <mxCell id="A0skXZaS7BoS2G26XvCz-38" value="输入ISBN号和数量" style="ellipse;whiteSpace=wrap;html=1;" parent="1" vertex="1">
          <mxGeometry x="580" y="670" width="70" height="50" as="geometry" />
        </mxCell>
        <mxCell id="A0skXZaS7BoS2G26XvCz-39" value="" style="endArrow=classic;html=1;rounded=0;exitX=0.5;exitY=1;exitDx=0;exitDy=0;entryX=0.5;entryY=0;entryDx=0;entryDy=0;" parent="1" source="A0skXZaS7BoS2G26XvCz-35" target="A0skXZaS7BoS2G26XvCz-38" edge="1">
          <mxGeometry width="50" height="50" relative="1" as="geometry">
            <mxPoint x="430" y="500" as="sourcePoint" />
            <mxPoint x="480" y="450" as="targetPoint" />
          </mxGeometry>
        </mxCell>
        <mxCell id="A0skXZaS7BoS2G26XvCz-40" value="输入图书完整信息" style="ellipse;whiteSpace=wrap;html=1;" parent="1" vertex="1">
          <mxGeometry x="190" y="20" width="70" height="50" as="geometry" />
        </mxCell>
        <mxCell id="A0skXZaS7BoS2G26XvCz-41" value="" style="endArrow=classic;html=1;rounded=0;exitX=0.5;exitY=0;exitDx=0;exitDy=0;entryX=0.5;entryY=1;entryDx=0;entryDy=0;" parent="1" source="A0skXZaS7BoS2G26XvCz-24" target="A0skXZaS7BoS2G26XvCz-40" edge="1">
          <mxGeometry width="50" height="50" relative="1" as="geometry">
            <mxPoint x="430" y="200" as="sourcePoint" />
            <mxPoint x="480" y="150" as="targetPoint" />
          </mxGeometry>
        </mxCell>
        <mxCell id="A0skXZaS7BoS2G26XvCz-42" value="输入ISBN号和数量" style="ellipse;whiteSpace=wrap;html=1;" parent="1" vertex="1">
          <mxGeometry x="45" y="110" width="70" height="50" as="geometry" />
        </mxCell>
        <mxCell id="A0skXZaS7BoS2G26XvCz-47" style="edgeStyle=orthogonalEdgeStyle;rounded=0;orthogonalLoop=1;jettySize=auto;html=1;exitX=0.5;exitY=0;exitDx=0;exitDy=0;entryX=0.5;entryY=1;entryDx=0;entryDy=0;" parent="1" source="A0skXZaS7BoS2G26XvCz-43" target="A0skXZaS7BoS2G26XvCz-42" edge="1">
          <mxGeometry relative="1" as="geometry" />
        </mxCell>
        <mxCell id="A0skXZaS7BoS2G26XvCz-43" value="采购" style="rounded=0;whiteSpace=wrap;html=1;" parent="1" vertex="1">
          <mxGeometry x="40" y="205" width="80" height="40" as="geometry" />
        </mxCell>
        <mxCell id="A0skXZaS7BoS2G26XvCz-44" value="修改图书" style="rounded=0;whiteSpace=wrap;html=1;" parent="1" vertex="1">
          <mxGeometry x="310" y="205" width="80" height="40" as="geometry" />
        </mxCell>
        <mxCell id="A0skXZaS7BoS2G26XvCz-45" value="" style="endArrow=classic;html=1;rounded=0;exitX=1;exitY=0.5;exitDx=0;exitDy=0;entryX=0;entryY=0.5;entryDx=0;entryDy=0;" parent="1" source="A0skXZaS7BoS2G26XvCz-11" target="A0skXZaS7BoS2G26XvCz-44" edge="1">
          <mxGeometry width="50" height="50" relative="1" as="geometry">
            <mxPoint x="430" y="200" as="sourcePoint" />
            <mxPoint x="480" y="150" as="targetPoint" />
          </mxGeometry>
        </mxCell>
        <mxCell id="A0skXZaS7BoS2G26XvCz-48" value="" style="endArrow=classic;html=1;rounded=0;exitX=0.5;exitY=0;exitDx=0;exitDy=0;entryX=0.5;entryY=1;entryDx=0;entryDy=0;" parent="1" source="A0skXZaS7BoS2G26XvCz-44" target="A0skXZaS7BoS2G26XvCz-50" edge="1">
          <mxGeometry width="50" height="50" relative="1" as="geometry">
            <mxPoint x="430" y="200" as="sourcePoint" />
            <mxPoint x="350" y="150" as="targetPoint" />
          </mxGeometry>
        </mxCell>
        <mxCell id="A0skXZaS7BoS2G26XvCz-50" value="输入修改信息" style="ellipse;whiteSpace=wrap;html=1;" parent="1" vertex="1">
          <mxGeometry x="315" y="100" width="70" height="50" as="geometry" />
        </mxCell>
        <mxCell id="A0skXZaS7BoS2G26XvCz-51" value="创建" style="rounded=0;whiteSpace=wrap;html=1;" parent="1" vertex="1">
          <mxGeometry x="565" y="110" width="80" height="40" as="geometry" />
        </mxCell>
        <mxCell id="A0skXZaS7BoS2G26XvCz-52" value="" style="endArrow=classic;html=1;rounded=0;entryX=0.419;entryY=0.988;entryDx=0;entryDy=0;entryPerimeter=0;" parent="1" source="A0skXZaS7BoS2G26XvCz-4" target="A0skXZaS7BoS2G26XvCz-51" edge="1">
          <mxGeometry width="50" height="50" relative="1" as="geometry">
            <mxPoint x="430" y="200" as="sourcePoint" />
            <mxPoint x="480" y="150" as="targetPoint" />
          </mxGeometry>
        </mxCell>
        <mxCell id="A0skXZaS7BoS2G26XvCz-54" value="" style="endArrow=classic;html=1;rounded=0;exitX=0;exitY=0;exitDx=0;exitDy=0;entryX=1;entryY=1;entryDx=0;entryDy=0;" parent="1" source="A0skXZaS7BoS2G26XvCz-51" target="A0skXZaS7BoS2G26XvCz-20" edge="1">
          <mxGeometry width="50" height="50" relative="1" as="geometry">
            <mxPoint x="430" y="200" as="sourcePoint" />
            <mxPoint x="480" y="150" as="targetPoint" />
          </mxGeometry>
        </mxCell>
        <mxCell id="A0skXZaS7BoS2G26XvCz-56" value="" style="endArrow=classic;html=1;rounded=0;exitX=0.5;exitY=0;exitDx=0;exitDy=0;entryX=0.5;entryY=1;entryDx=0;entryDy=0;" parent="1" source="A0skXZaS7BoS2G26XvCz-51" target="A0skXZaS7BoS2G26XvCz-21" edge="1">
          <mxGeometry width="50" height="50" relative="1" as="geometry">
            <mxPoint x="430" y="200" as="sourcePoint" />
            <mxPoint x="480" y="150" as="targetPoint" />
          </mxGeometry>
        </mxCell>
        <mxCell id="A0skXZaS7BoS2G26XvCz-57" value="&lt;span style=&quot;font-size: 14px;&quot;&gt;图书馆经营子系统&lt;/span&gt;" style="ellipse;whiteSpace=wrap;html=1;" parent="1" vertex="1">
          <mxGeometry x="180" y="440" width="120" height="80" as="geometry" />
        </mxCell>
        <mxCell id="A0skXZaS7BoS2G26XvCz-58" value="销售情况查询" style="rounded=0;whiteSpace=wrap;html=1;" parent="1" vertex="1">
          <mxGeometry x="435" y="585" width="90" height="50" as="geometry" />
        </mxCell>
        <mxCell id="A0skXZaS7BoS2G26XvCz-59" value="" style="endArrow=classic;html=1;rounded=0;exitX=0;exitY=1;exitDx=0;exitDy=0;entryX=0.5;entryY=0;entryDx=0;entryDy=0;" parent="1" source="A0skXZaS7BoS2G26XvCz-26" target="A0skXZaS7BoS2G26XvCz-58" edge="1">
          <mxGeometry width="50" height="50" relative="1" as="geometry">
            <mxPoint x="430" y="500" as="sourcePoint" />
            <mxPoint x="480" y="450" as="targetPoint" />
          </mxGeometry>
        </mxCell>
        <mxCell id="A0skXZaS7BoS2G26XvCz-60" value="" style="endArrow=classic;html=1;rounded=0;exitX=0;exitY=1;exitDx=0;exitDy=0;entryX=1;entryY=0;entryDx=0;entryDy=0;" parent="1" source="A0skXZaS7BoS2G26XvCz-5" target="A0skXZaS7BoS2G26XvCz-57" edge="1">
          <mxGeometry width="50" height="50" relative="1" as="geometry">
            <mxPoint x="430" y="500" as="sourcePoint" />
            <mxPoint x="480" y="450" as="targetPoint" />
          </mxGeometry>
        </mxCell>
        <mxCell id="A0skXZaS7BoS2G26XvCz-65" style="edgeStyle=orthogonalEdgeStyle;rounded=0;orthogonalLoop=1;jettySize=auto;html=1;exitX=0.5;exitY=1;exitDx=0;exitDy=0;entryX=0.5;entryY=0;entryDx=0;entryDy=0;" parent="1" source="A0skXZaS7BoS2G26XvCz-61" target="A0skXZaS7BoS2G26XvCz-62" edge="1">
          <mxGeometry relative="1" as="geometry" />
        </mxCell>
        <mxCell id="A0skXZaS7BoS2G26XvCz-61" value="采购信息查询" style="rounded=0;whiteSpace=wrap;html=1;" parent="1" vertex="1">
          <mxGeometry x="120" y="295" width="80" height="40" as="geometry" />
        </mxCell>
        <mxCell id="A0skXZaS7BoS2G26XvCz-66" style="edgeStyle=orthogonalEdgeStyle;rounded=0;orthogonalLoop=1;jettySize=auto;html=1;exitX=0;exitY=0.5;exitDx=0;exitDy=0;entryX=1;entryY=0.5;entryDx=0;entryDy=0;" parent="1" source="A0skXZaS7BoS2G26XvCz-62" target="A0skXZaS7BoS2G26XvCz-63" edge="1">
          <mxGeometry relative="1" as="geometry" />
        </mxCell>
        <mxCell id="A0skXZaS7BoS2G26XvCz-62" value="输入时间段" style="ellipse;whiteSpace=wrap;html=1;" parent="1" vertex="1">
          <mxGeometry x="125" y="360" width="70" height="55" as="geometry" />
        </mxCell>
        <mxCell id="A0skXZaS7BoS2G26XvCz-63" value="输出采购信息" style="ellipse;whiteSpace=wrap;html=1;" parent="1" vertex="1">
          <mxGeometry x="20" y="360" width="70" height="55" as="geometry" />
        </mxCell>
        <mxCell id="A0skXZaS7BoS2G26XvCz-64" value="" style="endArrow=classic;html=1;rounded=0;exitX=0.259;exitY=0.936;exitDx=0;exitDy=0;exitPerimeter=0;entryX=0.5;entryY=0;entryDx=0;entryDy=0;" parent="1" source="A0skXZaS7BoS2G26XvCz-11" target="A0skXZaS7BoS2G26XvCz-61" edge="1">
          <mxGeometry width="50" height="50" relative="1" as="geometry">
            <mxPoint x="430" y="400" as="sourcePoint" />
            <mxPoint x="480" y="350" as="targetPoint" />
          </mxGeometry>
        </mxCell>
        <mxCell id="A0skXZaS7BoS2G26XvCz-67" value="输出销售情况" style="ellipse;whiteSpace=wrap;html=1;" parent="1" vertex="1">
          <mxGeometry x="445" y="670" width="70" height="50" as="geometry" />
        </mxCell>
        <mxCell id="A0skXZaS7BoS2G26XvCz-69" value="" style="endArrow=classic;html=1;rounded=0;exitX=0.5;exitY=1;exitDx=0;exitDy=0;" parent="1" source="A0skXZaS7BoS2G26XvCz-58" target="A0skXZaS7BoS2G26XvCz-67" edge="1">
          <mxGeometry width="50" height="50" relative="1" as="geometry">
            <mxPoint x="430" y="600" as="sourcePoint" />
            <mxPoint x="480" y="550" as="targetPoint" />
          </mxGeometry>
        </mxCell>
        <mxCell id="A0skXZaS7BoS2G26XvCz-70" value="盈利查询" style="rounded=0;whiteSpace=wrap;html=1;" parent="1" vertex="1">
          <mxGeometry x="280" y="585" width="75" height="45" as="geometry" />
        </mxCell>
        <mxCell id="A0skXZaS7BoS2G26XvCz-71" value="" style="endArrow=classic;html=1;rounded=0;exitX=0.5;exitY=1;exitDx=0;exitDy=0;entryX=0.5;entryY=0;entryDx=0;entryDy=0;" parent="1" source="A0skXZaS7BoS2G26XvCz-70" target="A0skXZaS7BoS2G26XvCz-72" edge="1">
          <mxGeometry width="50" height="50" relative="1" as="geometry">
            <mxPoint x="390" y="610" as="sourcePoint" />
            <mxPoint x="390" y="650" as="targetPoint" />
          </mxGeometry>
        </mxCell>
        <mxCell id="A0skXZaS7BoS2G26XvCz-72" value="输出总体盈利情况" style="ellipse;whiteSpace=wrap;html=1;" parent="1" vertex="1">
          <mxGeometry x="282.5" y="670" width="70" height="50" as="geometry" />
        </mxCell>
        <mxCell id="A0skXZaS7BoS2G26XvCz-73" value="工作日志查询" style="rounded=0;whiteSpace=wrap;html=1;" parent="1" vertex="1">
          <mxGeometry x="140" y="585" width="75" height="45" as="geometry" />
        </mxCell>
        <mxCell id="A0skXZaS7BoS2G26XvCz-74" value="输出工作日志" style="ellipse;whiteSpace=wrap;html=1;" parent="1" vertex="1">
          <mxGeometry x="142.5" y="670" width="70" height="50" as="geometry" />
        </mxCell>
        <mxCell id="A0skXZaS7BoS2G26XvCz-75" value="" style="endArrow=classic;html=1;rounded=0;exitX=0.5;exitY=1;exitDx=0;exitDy=0;entryX=0.5;entryY=0;entryDx=0;entryDy=0;" parent="1" source="A0skXZaS7BoS2G26XvCz-73" target="A0skXZaS7BoS2G26XvCz-74" edge="1">
          <mxGeometry width="50" height="50" relative="1" as="geometry">
            <mxPoint x="430" y="600" as="sourcePoint" />
            <mxPoint x="480" y="550" as="targetPoint" />
          </mxGeometry>
        </mxCell>
        <mxCell id="A0skXZaS7BoS2G26XvCz-77" value="" style="endArrow=classic;html=1;rounded=0;exitX=0.808;exitY=0.95;exitDx=0;exitDy=0;entryX=0.5;entryY=0;entryDx=0;entryDy=0;exitPerimeter=0;" parent="1" source="A0skXZaS7BoS2G26XvCz-57" target="A0skXZaS7BoS2G26XvCz-70" edge="1">
          <mxGeometry width="50" height="50" relative="1" as="geometry">
            <mxPoint x="430" y="600" as="sourcePoint" />
            <mxPoint x="480" y="550" as="targetPoint" />
          </mxGeometry>
        </mxCell>
        <mxCell id="A0skXZaS7BoS2G26XvCz-78" value="" style="endArrow=classic;html=1;rounded=0;exitX=0.242;exitY=0.956;exitDx=0;exitDy=0;entryX=0.5;entryY=0;entryDx=0;entryDy=0;exitPerimeter=0;" parent="1" source="A0skXZaS7BoS2G26XvCz-57" target="A0skXZaS7BoS2G26XvCz-73" edge="1">
          <mxGeometry width="50" height="50" relative="1" as="geometry">
            <mxPoint x="430" y="600" as="sourcePoint" />
            <mxPoint x="480" y="550" as="targetPoint" />
          </mxGeometry>
        </mxCell>
        <mxCell id="A0skXZaS7BoS2G26XvCz-80" value="员工情况查询" style="rounded=0;whiteSpace=wrap;html=1;" parent="1" vertex="1">
          <mxGeometry x="50" y="460" width="77.5" height="40" as="geometry" />
        </mxCell>
        <mxCell id="A0skXZaS7BoS2G26XvCz-81" value="" style="endArrow=classic;html=1;rounded=0;exitX=0;exitY=0.5;exitDx=0;exitDy=0;entryX=1;entryY=0.5;entryDx=0;entryDy=0;" parent="1" source="A0skXZaS7BoS2G26XvCz-57" target="A0skXZaS7BoS2G26XvCz-80" edge="1">
          <mxGeometry width="50" height="50" relative="1" as="geometry">
            <mxPoint x="430" y="500" as="sourcePoint" />
            <mxPoint x="480" y="450" as="targetPoint" />
          </mxGeometry>
        </mxCell>
        <mxCell id="A0skXZaS7BoS2G26XvCz-82" value="输出员工操作记录" style="ellipse;whiteSpace=wrap;html=1;" parent="1" vertex="1">
          <mxGeometry x="53.75" y="535" width="70" height="50" as="geometry" />
        </mxCell>
        <mxCell id="A0skXZaS7BoS2G26XvCz-83" value="" style="endArrow=classic;html=1;rounded=0;exitX=0.5;exitY=1;exitDx=0;exitDy=0;entryX=0.5;entryY=0;entryDx=0;entryDy=0;" parent="1" source="A0skXZaS7BoS2G26XvCz-80" target="A0skXZaS7BoS2G26XvCz-82" edge="1">
          <mxGeometry width="50" height="50" relative="1" as="geometry">
            <mxPoint x="390" y="570" as="sourcePoint" />
            <mxPoint x="440" y="520" as="targetPoint" />
          </mxGeometry>
        </mxCell>
        <mxCell id="A0skXZaS7BoS2G26XvCz-85" value="图书信息数据库" style="shape=cylinder3;whiteSpace=wrap;html=1;boundedLbl=1;backgroundOutline=1;size=15;" parent="1" vertex="1">
          <mxGeometry x="505" y="310" width="60" height="80" as="geometry" />
        </mxCell>
        <mxCell id="A0skXZaS7BoS2G26XvCz-91" value="" style="endArrow=none;dashed=1;html=1;dashPattern=1 3;strokeWidth=2;rounded=0;exitX=1;exitY=0.5;exitDx=0;exitDy=0;entryX=0.5;entryY=0;entryDx=0;entryDy=0;entryPerimeter=0;" parent="1" source="A0skXZaS7BoS2G26XvCz-40" target="A0skXZaS7BoS2G26XvCz-85" edge="1">
          <mxGeometry width="50" height="50" relative="1" as="geometry">
            <mxPoint x="330" y="310" as="sourcePoint" />
            <mxPoint x="400" y="270" as="targetPoint" />
            <Array as="points">
              <mxPoint x="410" y="45" />
              <mxPoint x="410" y="120" />
              <mxPoint x="410" y="260" />
            </Array>
          </mxGeometry>
        </mxCell>
        <mxCell id="A0skXZaS7BoS2G26XvCz-93" value="" style="endArrow=none;dashed=1;html=1;dashPattern=1 3;strokeWidth=2;rounded=0;exitX=0.5;exitY=0;exitDx=0;exitDy=0;" parent="1" source="A0skXZaS7BoS2G26XvCz-42" edge="1">
          <mxGeometry width="50" height="50" relative="1" as="geometry">
            <mxPoint x="330" y="110" as="sourcePoint" />
            <mxPoint x="290" y="40" as="targetPoint" />
            <Array as="points">
              <mxPoint x="80" y="80" />
              <mxPoint x="290" y="80" />
            </Array>
          </mxGeometry>
        </mxCell>
        <mxCell id="A0skXZaS7BoS2G26XvCz-94" value="" style="endArrow=none;dashed=1;html=1;rounded=0;exitX=1;exitY=0.5;exitDx=0;exitDy=0;" parent="1" source="A0skXZaS7BoS2G26XvCz-50" edge="1">
          <mxGeometry width="50" height="50" relative="1" as="geometry">
            <mxPoint x="330" y="110" as="sourcePoint" />
            <mxPoint x="410" y="125" as="targetPoint" />
          </mxGeometry>
        </mxCell>
        <mxCell id="A0skXZaS7BoS2G26XvCz-96" value="" style="endArrow=none;dashed=1;html=1;rounded=0;exitX=1;exitY=0;exitDx=0;exitDy=52.5;exitPerimeter=0;" parent="1" source="A0skXZaS7BoS2G26XvCz-85" edge="1">
          <mxGeometry width="50" height="50" relative="1" as="geometry">
            <mxPoint x="330" y="310" as="sourcePoint" />
            <mxPoint x="680" y="363" as="targetPoint" />
            <Array as="points" />
          </mxGeometry>
        </mxCell>
        <mxCell id="A0skXZaS7BoS2G26XvCz-100" value="" style="endArrow=none;dashed=1;html=1;rounded=0;exitX=0.5;exitY=1;exitDx=0;exitDy=0;entryX=0.5;entryY=1;entryDx=0;entryDy=0;entryPerimeter=0;" parent="1" source="A0skXZaS7BoS2G26XvCz-38" target="A0skXZaS7BoS2G26XvCz-85" edge="1">
          <mxGeometry width="50" height="50" relative="1" as="geometry">
            <mxPoint x="330" y="610" as="sourcePoint" />
            <mxPoint x="410" y="720" as="targetPoint" />
            <Array as="points">
              <mxPoint x="615" y="760" />
              <mxPoint x="400" y="760" />
              <mxPoint x="400" y="440" />
              <mxPoint x="535" y="440" />
            </Array>
          </mxGeometry>
        </mxCell>
        <mxCell id="A0skXZaS7BoS2G26XvCz-101" value="用户信息数据库" style="shape=cylinder3;whiteSpace=wrap;html=1;boundedLbl=1;backgroundOutline=1;size=15;" parent="1" vertex="1">
          <mxGeometry x="700" y="50" width="60" height="80" as="geometry" />
        </mxCell>
        <mxCell id="A0skXZaS7BoS2G26XvCz-102" value="" style="endArrow=none;dashed=1;html=1;rounded=0;exitX=0.5;exitY=0;exitDx=0;exitDy=0;entryX=0.5;entryY=0;entryDx=0;entryDy=0;entryPerimeter=0;" parent="1" source="A0skXZaS7BoS2G26XvCz-20" target="A0skXZaS7BoS2G26XvCz-101" edge="1">
          <mxGeometry width="50" height="50" relative="1" as="geometry">
            <mxPoint x="330" y="170" as="sourcePoint" />
            <mxPoint x="380" y="120" as="targetPoint" />
            <Array as="points">
              <mxPoint x="470" y="10" />
              <mxPoint x="730" y="10" />
            </Array>
          </mxGeometry>
        </mxCell>
        <mxCell id="A0skXZaS7BoS2G26XvCz-104" value="" style="endArrow=none;dashed=1;html=1;rounded=0;exitX=0.5;exitY=0;exitDx=0;exitDy=0;" parent="1" source="A0skXZaS7BoS2G26XvCz-21" edge="1">
          <mxGeometry width="50" height="50" relative="1" as="geometry">
            <mxPoint x="330" y="170" as="sourcePoint" />
            <mxPoint x="605" y="10" as="targetPoint" />
          </mxGeometry>
        </mxCell>
        <mxCell id="A0skXZaS7BoS2G26XvCz-105" value="财产及工作日志数据库" style="shape=cylinder3;whiteSpace=wrap;html=1;boundedLbl=1;backgroundOutline=1;size=15;" parent="1" vertex="1">
          <mxGeometry x="25" y="620" width="60" height="80" as="geometry" />
        </mxCell>
        <mxCell id="A0skXZaS7BoS2G26XvCz-106" value="" style="endArrow=none;dashed=1;html=1;rounded=0;exitX=1;exitY=0.5;exitDx=0;exitDy=0;exitPerimeter=0;entryX=0;entryY=0.5;entryDx=0;entryDy=0;" parent="1" source="A0skXZaS7BoS2G26XvCz-105" target="A0skXZaS7BoS2G26XvCz-74" edge="1">
          <mxGeometry width="50" height="50" relative="1" as="geometry">
            <mxPoint x="330" y="670" as="sourcePoint" />
            <mxPoint x="380" y="620" as="targetPoint" />
            <Array as="points">
              <mxPoint x="120" y="660" />
              <mxPoint x="120" y="695" />
            </Array>
          </mxGeometry>
        </mxCell>
        <mxCell id="A0skXZaS7BoS2G26XvCz-108" value="" style="endArrow=none;dashed=1;html=1;rounded=0;exitX=0;exitY=0.5;exitDx=0;exitDy=0;exitPerimeter=0;" parent="1" source="A0skXZaS7BoS2G26XvCz-105" edge="1">
          <mxGeometry width="50" height="50" relative="1" as="geometry">
            <mxPoint x="330" y="670" as="sourcePoint" />
            <mxPoint x="90" y="510" as="targetPoint" />
            <Array as="points">
              <mxPoint x="10" y="660" />
              <mxPoint x="10" y="510" />
            </Array>
          </mxGeometry>
        </mxCell>
        <mxCell id="A0skXZaS7BoS2G26XvCz-110" value="" style="endArrow=none;dashed=1;html=1;rounded=0;exitX=0.5;exitY=1;exitDx=0;exitDy=0;exitPerimeter=0;entryX=0.5;entryY=1;entryDx=0;entryDy=0;" parent="1" source="A0skXZaS7BoS2G26XvCz-105" target="A0skXZaS7BoS2G26XvCz-72" edge="1">
          <mxGeometry width="50" height="50" relative="1" as="geometry">
            <mxPoint x="330" y="570" as="sourcePoint" />
            <mxPoint x="55" y="600" as="targetPoint" />
            <Array as="points">
              <mxPoint x="55" y="740" />
              <mxPoint x="318" y="740" />
            </Array>
          </mxGeometry>
        </mxCell>
        <mxCell id="xwRKyPXGLDGc8udRPO6m-3" value="" style="endArrow=none;dashed=1;html=1;rounded=0;exitX=0;exitY=0.5;exitDx=0;exitDy=0;" edge="1" parent="1" source="A0skXZaS7BoS2G26XvCz-63">
          <mxGeometry width="50" height="50" relative="1" as="geometry">
            <mxPoint x="390" y="470" as="sourcePoint" />
            <mxPoint x="80" y="80" as="targetPoint" />
            <Array as="points">
              <mxPoint x="10" y="388" />
              <mxPoint x="10" y="80" />
            </Array>
          </mxGeometry>
        </mxCell>
        <mxCell id="xwRKyPXGLDGc8udRPO6m-7" value="" style="endArrow=none;dashed=1;html=1;rounded=0;entryX=0.5;entryY=1;entryDx=0;entryDy=0;exitX=0.5;exitY=1;exitDx=0;exitDy=0;exitPerimeter=0;" edge="1" parent="1" source="A0skXZaS7BoS2G26XvCz-105" target="A0skXZaS7BoS2G26XvCz-67">
          <mxGeometry width="50" height="50" relative="1" as="geometry">
            <mxPoint x="60" y="740" as="sourcePoint" />
            <mxPoint x="440" y="620" as="targetPoint" />
            <Array as="points">
              <mxPoint x="55" y="830" />
              <mxPoint x="480" y="830" />
            </Array>
          </mxGeometry>
        </mxCell>
      </root>
    </mxGraphModel>
  </diagram>
</mxfile>
